<mxfile host="65bd71144e">
    <diagram id="FpL0RgpE9faJpigE-HL0" name="Page-1">
        <mxGraphModel dx="737" dy="691" grid="1" gridSize="10" guides="1" tooltips="1" connect="1" arrows="1" fold="1" page="1" pageScale="1" pageWidth="850" pageHeight="1100" math="0" shadow="0">
            <root>
                <mxCell id="0"/>
                <mxCell id="1" parent="0"/>
                <mxCell id="13" value="./new_project/terraform" style="rounded=1;whiteSpace=wrap;html=1;verticalAlign=top;" vertex="1" parent="1">
                    <mxGeometry x="150" y="155" width="670" height="360" as="geometry"/>
                </mxCell>
                <mxCell id="2" value="./infrastructure" style="whiteSpace=wrap;html=1;aspect=fixed;verticalAlign=top;rounded=1;" vertex="1" parent="1">
                    <mxGeometry x="190" y="220" width="230" height="230" as="geometry"/>
                </mxCell>
                <mxCell id="3" value="Azure" style="rounded=0;whiteSpace=wrap;html=1;" vertex="1" parent="1">
                    <mxGeometry x="245" y="270" width="120" height="60" as="geometry"/>
                </mxCell>
                <mxCell id="4" value="GCP" style="rounded=0;whiteSpace=wrap;html=1;" vertex="1" parent="1">
                    <mxGeometry x="245" y="350" width="120" height="60" as="geometry"/>
                </mxCell>
                <mxCell id="6" value="./cicd" style="whiteSpace=wrap;html=1;aspect=fixed;verticalAlign=top;rounded=1;" vertex="1" parent="1">
                    <mxGeometry x="560" y="220" width="230" height="230" as="geometry"/>
                </mxCell>
                <mxCell id="7" value="GitHub" style="rounded=0;whiteSpace=wrap;html=1;" vertex="1" parent="1">
                    <mxGeometry x="615" y="305" width="120" height="60" as="geometry"/>
                </mxCell>
                <mxCell id="8" value="" style="endArrow=classic;html=1;exitX=1;exitY=0.5;exitDx=0;exitDy=0;entryX=0;entryY=0.5;entryDx=0;entryDy=0;" edge="1" parent="1" source="2" target="6">
                    <mxGeometry width="50" height="50" relative="1" as="geometry">
                        <mxPoint x="510" y="490" as="sourcePoint"/>
                        <mxPoint x="560" y="440" as="targetPoint"/>
                    </mxGeometry>
                </mxCell>
                <mxCell id="9" value="outputs" style="edgeLabel;html=1;align=center;verticalAlign=middle;resizable=0;points=[];" vertex="1" connectable="0" parent="8">
                    <mxGeometry x="0.0429" y="-1" relative="1" as="geometry">
                        <mxPoint as="offset"/>
                    </mxGeometry>
                </mxCell>
            </root>
        </mxGraphModel>
    </diagram>
</mxfile>